<svg width="16" height="16" viewBox="0 0 16 16" fill="none" xmlns="http://www.w3.org/2000/svg">
<mask id="mask0_20_3" style="mask-type:luminance" maskUnits="userSpaceOnUse" x="0" y="0" width="16" height="16">
<path d="M16 0H0V16H16V0Z" fill="white"/>
</mask>
<g mask="url(#mask0_20_3)">
<path d="M8.90307 0.980088C8.43627 0.409956 7.5644 0.409958 7.09767 0.980088L6.43642 1.78772C6.3911 1.84308 6.3155 1.86334 6.24857 1.83806L5.27211 1.46924C4.58281 1.20888 3.82775 1.64481 3.70857 2.37195L3.53975 3.40199C3.52818 3.47259 3.47284 3.52793 3.40223 3.53951L2.37219 3.70833C1.64506 3.82751 1.20912 4.58256 1.46948 5.27187L1.8383 6.24833C1.86358 6.31525 1.84332 6.39086 1.78797 6.43618L0.980333 7.09739C0.410201 7.56419 0.410202 8.43606 0.980333 8.90286L1.78797 9.56405C1.84332 9.60939 1.86358 9.68499 1.8383 9.75192L1.46948 10.7284C1.20913 11.4177 1.64505 12.1727 2.37219 12.2919L3.40223 12.4607C3.47284 12.4723 3.52818 12.5277 3.53975 12.5983L3.70857 13.6283C3.82775 14.3554 4.58281 14.7913 5.27211 14.531L6.24857 14.1622C6.3155 14.1369 6.3911 14.1571 6.43642 14.2125L7.09767 15.0201C7.5644 15.5903 8.43627 15.5903 8.90307 15.0201L9.56427 14.2125C9.6096 14.1571 9.6852 14.1369 9.75213 14.1622L10.7286 14.531C11.4179 14.7913 12.173 14.3554 12.2921 13.6283L12.461 12.5983C12.4725 12.5277 12.5279 12.4723 12.5985 12.4607L13.6285 12.2919C14.3557 12.1727 14.7916 11.4177 14.5313 10.7284L14.1624 9.75192C14.1371 9.68499 14.1574 9.60939 14.2127 9.56405L15.0204 8.90286C15.5905 8.43606 15.5905 7.56419 15.0204 7.09739L14.2127 6.43618C14.1574 6.39086 14.1371 6.31525 14.1624 6.24833L14.5313 5.27187C14.7916 4.58256 14.3557 3.82751 13.6285 3.70833L12.5985 3.53951C12.5279 3.52793 12.4725 3.47259 12.461 3.40199L12.2921 2.37195C12.173 1.64482 11.4179 1.20888 10.7286 1.46924L9.75213 1.83806C9.6852 1.86334 9.6096 1.84308 9.56427 1.78772L8.90307 0.980088Z" fill="#1C9BEF"/>
<path fill-rule="evenodd" clip-rule="evenodd" d="M12.0201 5.31319C12.2154 5.50845 12.2154 5.82504 12.0201 6.0203L7.35345 10.6869C7.25972 10.7807 7.13252 10.8334 6.99992 10.8334C6.86732 10.8334 6.74012 10.7807 6.64636 10.6869L3.9797 8.02028C3.78444 7.82501 3.78444 7.50848 3.9797 7.31321C4.17496 7.11795 4.49154 7.11795 4.6868 7.31321L6.99992 9.62628L11.3131 5.31319C11.5083 5.11793 11.8249 5.11793 12.0201 5.31319Z" fill="black"/>
</g>
</svg>
